<?xml version="1.0" standalone="no"?>
<!DOCTYPE svg PUBLIC "-//W3C//DTD SVG 20010904//EN"
 "http://www.w3.org/TR/2001/REC-SVG-20010904/DTD/svg10.dtd">
<svg version="1.0" xmlns="http://www.w3.org/2000/svg"
 width="720.000000pt" height="720.000000pt" viewBox="0 0 720.000000 720.000000"
 preserveAspectRatio="xMidYMid meet">
<metadata>
Created by potrace 1.14, written by Peter Selinger 2001-2017
</metadata>
<g transform="translate(0.000000,720.000000) scale(0.100000,-0.100000)"
fill="#000000" stroke="none">
<path d="M3490 6909 c-41 -4 -115 -10 -165 -14 -102 -6 -221 -32 -310 -65 -35
-13 -93 -25 -137 -28 -68 -4 -80 -8 -104 -33 -15 -16 -34 -29 -41 -29 -7 0
-13 -3 -13 -8 0 -4 -13 -13 -29 -20 -16 -7 -53 -44 -82 -82 -30 -38 -59 -69
-66 -69 -6 -1 -22 -18 -34 -38 -17 -28 -23 -52 -23 -104 -1 -65 -2 -68 -41
-104 l-39 -38 -37 21 c-44 25 -145 46 -214 44 -65 -2 -273 -62 -352 -101 -34
-17 -70 -42 -81 -56 -11 -14 -26 -25 -33 -25 -8 0 -27 -11 -43 -25 -23 -20
-26 -25 -11 -25 17 0 17 -1 0 -20 -10 -11 -21 -17 -25 -15 -10 6 -70 -49 -70
-63 0 -6 -10 -14 -21 -17 -15 -5 -18 -10 -10 -14 18 -11 -5 -54 -39 -74 -15
-9 -31 -29 -34 -43 -5 -20 -12 -25 -26 -21 -18 5 -20 0 -20 -46 0 -35 -9 -70
-26 -107 -14 -30 -47 -116 -72 -190 -49 -145 -49 -137 -41 -385 3 -77 -1 -110
-14 -143 -12 -31 -17 -71 -17 -147 l0 -105 -42 -26 c-24 -15 -53 -35 -65 -46
-16 -15 -29 -19 -48 -14 -32 8 -58 -14 -115 -94 -21 -30 -56 -75 -79 -100 -22
-25 -46 -58 -53 -75 -6 -16 -26 -52 -43 -80 -58 -94 -59 -97 -50 -192 16 -175
16 -174 -35 -208 -39 -26 -45 -34 -42 -61 2 -17 -3 -38 -11 -45 -22 -23 -37
-56 -37 -83 0 -14 -4 -26 -9 -26 -14 0 -20 -25 -36 -138 -17 -122 -19 -218 -5
-227 6 -3 10 -16 10 -28 0 -12 10 -34 22 -47 34 -38 60 -89 54 -105 -2 -7 8
-32 24 -53 45 -62 93 -166 136 -292 45 -134 69 -163 219 -269 50 -35 126 -94
170 -131 117 -97 234 -189 279 -218 73 -45 202 -81 358 -97 32 -4 60 -10 62
-14 4 -6 -35 -59 -186 -255 -64 -82 -95 -178 -104 -317 -4 -72 -3 -119 6 -145
17 -55 90 -204 100 -204 4 0 10 -9 13 -20 3 -11 13 -20 22 -20 17 0 75 -55 75
-71 0 -5 6 -9 14 -9 8 0 18 -9 21 -20 3 -11 10 -20 16 -20 5 0 15 -16 24 -35
8 -20 21 -42 28 -50 8 -7 22 -36 30 -63 11 -31 35 -69 67 -103 27 -29 50 -57
50 -61 0 -4 6 -8 13 -8 7 0 19 -9 27 -20 8 -11 21 -20 30 -20 19 -1 44 -20 52
-40 5 -12 63 -51 198 -130 16 -9 214 -86 375 -146 85 -32 112 -37 185 -38 129
-1 280 52 540 191 159 84 181 90 226 64 19 -12 45 -21 57 -21 12 0 42 -6 67
-14 38 -11 46 -18 50 -42 5 -28 6 -29 70 -30 l65 0 -62 3 c-55 3 -63 7 -63 23
0 18 7 20 84 20 47 0 86 -4 88 -10 2 -5 28 -10 58 -11 52 0 86 7 280 64 47 14
128 34 180 46 140 31 238 59 298 86 141 64 324 230 383 347 17 34 47 103 66
153 27 70 46 101 83 140 68 70 75 113 27 175 -18 25 -34 52 -34 60 0 8 -8 47
-16 85 -9 39 -22 96 -28 127 l-13 58 41 34 c31 28 44 48 57 95 l17 60 -47 43
c-25 23 -54 49 -64 58 -9 8 -50 44 -90 80 -40 35 -95 81 -122 101 l-50 38 29
14 c15 8 60 24 98 37 39 12 141 51 227 86 86 35 161 64 167 64 10 0 94 40 151
71 40 22 91 59 150 109 30 26 67 50 81 53 17 5 29 16 33 32 4 14 13 25 21 25
8 0 15 5 15 10 0 6 9 10 20 10 12 0 36 15 54 32 50 49 72 66 93 70 10 2 19 13
21 28 7 49 32 111 57 138 14 15 25 32 25 38 0 7 11 32 25 55 14 24 25 54 25
67 0 13 6 35 14 50 8 16 19 57 25 92 16 92 41 176 90 297 23 56 20 95 -7 122
-11 11 -12 25 -6 60 16 91 9 145 -29 213 -20 34 -41 86 -48 113 -7 28 -23 66
-36 86 -13 20 -25 44 -27 55 -2 10 -9 32 -15 47 -14 35 -14 77 -1 77 6 0 10 7
10 15 0 8 9 24 19 34 19 19 32 88 33 181 0 54 -8 88 -27 110 -7 8 -15 29 -19
45 -9 40 -36 163 -43 200 -6 32 -19 48 -45 58 -10 3 -18 12 -18 18 0 7 -8 17
-17 24 -26 19 -31 151 -8 211 16 43 16 49 1 107 -10 34 -23 76 -31 92 -8 17
-17 47 -20 68 -3 20 -11 37 -18 37 -7 0 -19 9 -27 20 -8 11 -23 20 -32 20 -13
0 -20 10 -25 30 -4 21 -11 30 -24 30 -12 0 -19 7 -19 20 0 15 -7 20 -25 20
-14 0 -25 5 -25 10 0 6 -7 10 -15 10 -8 0 -15 5 -15 10 0 6 -6 10 -14 10 -8 0
-18 9 -21 20 -4 13 -15 20 -31 20 -13 0 -24 4 -24 8 0 4 -16 14 -35 21 -38 13
-43 25 -20 47 18 19 20 43 3 40 -36 -6 -58 -19 -58 -33 0 -23 -138 -14 -152
10 -5 10 -27 36 -49 59 -21 23 -39 47 -39 55 0 7 -4 13 -9 13 -5 0 -11 13 -14
28 -3 16 -17 34 -32 42 -20 11 -25 20 -22 37 3 17 0 23 -14 23 -10 0 -24 9
-31 20 -11 17 -20 19 -60 14 -33 -5 -48 -3 -48 5 0 6 -8 11 -18 11 -26 0 -152
126 -152 152 0 6 -11 7 -26 4 -30 -8 -134 21 -134 37 0 6 -55 7 -147 4 -156
-5 -173 -1 -173 42 0 16 -6 21 -25 21 -15 0 -25 6 -25 14 0 8 -11 21 -24 28
-13 7 -42 23 -64 35 -55 30 -58 39 -26 68 15 14 22 25 16 25 -6 0 -15 -6 -19
-13 -16 -24 -61 -40 -97 -33 -20 4 -36 11 -36 16 0 6 -7 10 -16 10 -12 0 -15
7 -12 24 4 18 1 22 -13 19 -23 -6 -78 54 -79 87 -1 23 -2 22 -16 -10 -8 -19
-16 -36 -19 -38 -5 -5 -189 73 -250 107 -93 51 -270 75 -435 60z"/>
<path d="M6610 4131 c0 -11 -6 -22 -12 -24 -9 -4 -10 -6 -1 -6 13 -1 43 26 43
40 0 5 -7 9 -15 9 -8 0 -15 -9 -15 -19z"/>
<path d="M6572 4080 c0 -14 2 -19 5 -12 2 6 2 18 0 25 -3 6 -5 1 -5 -13z"/>
<path d="M6340 3048 c0 -4 7 -8 15 -8 8 0 15 4 15 8 0 5 -7 9 -15 9 -8 0 -15
-4 -15 -9z"/>
</g>
</svg>
